<svg width="509" height="23" viewBox="0 0 509 23" fill="none" xmlns="http://www.w3.org/2000/svg">
<g clip-path="url(#clip0_4_380)">
<path d="M17.3444 9.48942L11.8688 8.62002L9.38808 3.27945C9.20657 2.90685 8.72253 2.90685 8.54102 3.27945L6.06033 8.65107L0.614906 9.48942C0.221625 9.55152 0.0703636 10.0794 0.372887 10.3588L4.33594 14.5505L3.39812 20.419C3.33762 20.8226 3.7309 21.1642 4.09392 20.9158L9.02506 18.1523L13.9259 20.9158C14.2587 21.1021 14.6822 20.7916 14.5915 20.419L13.6537 14.5505L17.6167 10.3588C17.8587 10.0794 17.7377 9.55152 17.3444 9.48942Z" fill="#52503B"/>
</g>
<g clip-path="url(#clip1_4_380)">
<path d="M56.3171 9.48942L50.8414 8.62002L48.3607 3.27945C48.1792 2.90685 47.6951 2.90685 47.5136 3.27945L45.0329 8.65107L39.5875 9.48942C39.1942 9.55152 39.043 10.0794 39.3455 10.3588L43.3086 14.5505L42.3707 20.419C42.3102 20.8226 42.7035 21.1642 43.0665 20.9158L47.9977 18.1523L52.8985 20.9158C53.2313 21.1021 53.6549 20.7916 53.5641 20.419L52.6263 14.5505L56.5893 10.3588C56.8314 10.0794 56.7103 9.55152 56.3171 9.48942Z" fill="#52503B"/>
</g>
<g clip-path="url(#clip2_4_380)">
<path d="M95.2897 9.48942L89.814 8.62002L87.3333 3.27945C87.1518 2.90685 86.6678 2.90685 86.4862 3.27945L84.0055 8.65107L78.5601 9.48942C78.1668 9.55152 78.0156 10.0794 78.3181 10.3588L82.2812 14.5505L81.3433 20.419C81.2828 20.8226 81.6761 21.1642 82.0391 20.9158L86.9703 18.1523L91.8712 20.9158C92.2039 21.1021 92.6275 20.7916 92.5367 20.419L91.5989 14.5505L95.5619 10.3588C95.804 10.0794 95.683 9.55152 95.2897 9.48942Z" fill="#52503B"/>
</g>
<g clip-path="url(#clip3_4_380)">
<path d="M36.8307 9.48942L31.3551 8.62002L28.8744 3.27945C28.6929 2.90685 28.2088 2.90685 28.0273 3.27945L25.5466 8.65107L20.1012 9.48942C19.7079 9.55152 19.5567 10.0794 19.8592 10.3588L23.8222 14.5505L22.8844 20.419C22.8239 20.8226 23.2172 21.1642 23.5802 20.9158L28.5114 18.1523L33.4122 20.9158C33.745 21.1021 34.1685 20.7916 34.0778 20.419L33.14 14.5505L37.103 10.3588C37.345 10.0794 37.224 9.55152 36.8307 9.48942Z" fill="#52503B"/>
</g>
<g clip-path="url(#clip4_4_380)">
<path d="M75.8034 9.48942L70.3277 8.62002L67.847 3.27945C67.6655 2.90685 67.1814 2.90685 66.9999 3.27945L64.5192 8.65107L59.0738 9.48942C58.6805 9.55152 58.5293 10.0794 58.8318 10.3588L62.7949 14.5505L61.857 20.419C61.7965 20.8226 62.1898 21.1642 62.5528 20.9158L67.484 18.1523L72.3848 20.9158C72.7176 21.1021 73.1412 20.7916 73.0504 20.419L72.1126 14.5505L76.0756 10.3588C76.3176 10.0794 76.1966 9.55152 75.8034 9.48942Z" fill="#52503B"/>
</g>
<defs>
<clipPath id="clip0_4_380">
<rect width="17.5377" height="18" fill="white" transform="translate(0.203766 3)"/>
</clipPath>
<clipPath id="clip1_4_380">
<rect width="17.5377" height="18" fill="white" transform="translate(39.1764 3)"/>
</clipPath>
<clipPath id="clip2_4_380">
<rect width="17.5377" height="18" fill="white" transform="translate(78.149 3)"/>
</clipPath>
<clipPath id="clip3_4_380">
<rect width="17.5377" height="18" fill="white" transform="translate(19.6901 3)"/>
</clipPath>
<clipPath id="clip4_4_380">
<rect width="17.5377" height="18" fill="white" transform="translate(58.6627 3)"/>
</clipPath>
</defs>
</svg>
